<svg xmlns="http://www.w3.org/2000/svg" xmlns:xlink="http://www.w3.org/1999/xlink" width="1080" zoomAndPan="magnify" viewBox="0 0 810 1439.999935" height="1920" preserveAspectRatio="xMidYMid meet" version="1.2"><g id="4d96bc01be"><path style="fill:none;stroke-width:9;stroke-linecap:butt;stroke-linejoin:miter;stroke:#737373;stroke-opacity:1;stroke-miterlimit:4;" d="M -0.00133972 4.50011 L 2669.681184 4.50011 " transform="matrix(0.75,-0.000000000000000093,0.000000000000000093,0.75,-665.416964,716.624918)"/><path style="fill:none;stroke-width:9;stroke-linecap:butt;stroke-linejoin:miter;stroke:#737373;stroke-opacity:1;stroke-miterlimit:4;" d="M -0.00133972 4.500094 L 2669.681184 4.500094 " transform="matrix(0.75,-0.000000000000000093,0.000000000000000093,0.75,-665.416964,576.37493)"/><path style="fill:none;stroke-width:9;stroke-linecap:butt;stroke-linejoin:miter;stroke:#737373;stroke-opacity:1;stroke-miterlimit:4;" d="M 0.00106272 4.498743 L 2669.683586 4.498743 " transform="matrix(0.75,-0.000000000000000093,0.000000000000000093,0.75,-624.10236,996.762661)"/><path style="fill:none;stroke-width:9;stroke-linecap:butt;stroke-linejoin:miter;stroke:#737373;stroke-opacity:1;stroke-miterlimit:4;" d="M 0.00238896 4.498631 L 2669.679704 4.498631 " transform="matrix(0.75,-0.000000000000000093,0.000000000000000093,0.75,-596.130698,856.512746)"/><path style="fill:none;stroke-width:9;stroke-linecap:butt;stroke-linejoin:miter;stroke:#737373;stroke-opacity:1;stroke-miterlimit:4;" d="M -0.00133972 4.501451 L 2669.681184 4.501451 " transform="matrix(0.75,-0.000000000000000093,0.000000000000000093,0.75,-665.416964,155.987194)"/><path style="fill:none;stroke-width:9;stroke-linecap:butt;stroke-linejoin:miter;stroke:#737373;stroke-opacity:1;stroke-miterlimit:4;" d="M -0.00133972 4.501437 L 2669.681184 4.501437 " transform="matrix(0.75,-0.000000000000000093,0.000000000000000093,0.75,-665.416964,15.737203)"/><path style="fill:none;stroke-width:9;stroke-linecap:butt;stroke-linejoin:miter;stroke:#737373;stroke-opacity:1;stroke-miterlimit:4;" d="M 0.00106272 4.500078 L 2669.683586 4.500078 " transform="matrix(0.75,-0.000000000000000093,0.000000000000000093,0.75,-624.10236,436.124942)"/><path style="fill:none;stroke-width:9;stroke-linecap:butt;stroke-linejoin:miter;stroke:#737373;stroke-opacity:1;stroke-miterlimit:4;" d="M 0.00238896 4.500061 L 2669.679704 4.500061 " transform="matrix(0.75,-0.000000000000000093,0.000000000000000093,0.75,-596.130698,295.874954)"/><path style="fill:none;stroke-width:9;stroke-linecap:butt;stroke-linejoin:miter;stroke:#737373;stroke-opacity:1;stroke-miterlimit:4;" d="M -0.00133972 4.49876 L 2669.681184 4.49876 " transform="matrix(0.75,-0.000000000000000093,0.000000000000000093,0.75,-665.416964,1137.012649)"/><path style="fill:none;stroke-width:9;stroke-linecap:butt;stroke-linejoin:miter;stroke:#737373;stroke-opacity:1;stroke-miterlimit:4;" d="M 0.00106272 4.502601 L 2669.683586 4.502601 " transform="matrix(0.75,-0.000000000000000093,0.000000000000000093,0.75,-624.10236,1417.150393)"/><path style="fill:none;stroke-width:9;stroke-linecap:butt;stroke-linejoin:miter;stroke:#737373;stroke-opacity:1;stroke-miterlimit:4;" d="M 0.00238896 4.502585 L 2669.679704 4.502585 " transform="matrix(0.75,-0.000000000000000093,0.000000000000000093,0.75,-596.130698,1276.900405)"/><path style="fill:none;stroke-width:9;stroke-linecap:butt;stroke-linejoin:miter;stroke:#737373;stroke-opacity:1;stroke-miterlimit:4;" d="M 0.00136942 4.500743 L 2669.683893 4.500743 " transform="matrix(0,-0.75,0.75,0,330.101006,1773.360402)"/><path style="fill:none;stroke-width:9;stroke-linecap:butt;stroke-linejoin:miter;stroke:#737373;stroke-opacity:1;stroke-miterlimit:4;" d="M 0.00136942 4.50065 L 2669.683893 4.50065 " transform="matrix(0,-0.75,0.75,0,189.851075,1773.360402)"/><path style="fill:none;stroke-width:9;stroke-linecap:butt;stroke-linejoin:miter;stroke:#737373;stroke-opacity:1;stroke-miterlimit:4;" d="M -0.00153247 4.499376 L 2669.680991 4.499376 " transform="matrix(0,-0.75,0.75,0,610.238749,1732.045726)"/><path style="fill:none;stroke-width:9;stroke-linecap:butt;stroke-linejoin:miter;stroke:#737373;stroke-opacity:1;stroke-miterlimit:4;" d="M -0.000110231 4.49936 L 2669.682413 4.49936 " transform="matrix(0,-0.75,0.75,0,469.988761,1704.074136)"/><path style="fill:none;stroke-width:9;stroke-linecap:butt;stroke-linejoin:miter;stroke:#737373;stroke-opacity:1;stroke-miterlimit:4;" d="M -0.00153247 4.500634 L 2669.680991 4.500634 " transform="matrix(0,-0.75,0.75,0,49.601088,1732.045726)"/><path style="fill:none;stroke-width:9;stroke-linecap:butt;stroke-linejoin:miter;stroke:#737373;stroke-opacity:1;stroke-miterlimit:4;" d="M 0.00136942 4.499393 L 2669.683893 4.499393 " transform="matrix(0,-0.75,0.75,0,750.488737,1773.360402)"/></g></svg>